<svg height="24" viewBox="0 0 24 24" width="24" xmlns="http://www.w3.org/2000/svg"><g fill="#9a9a9a" fill-rule="evenodd"><g><path d="m12 22.130001c5.5946451 0 10.130001-4.5353559 10.130001-10.130001 0-5.59464506-4.5353559-10.13000098-10.130001-10.13000098-5.59464506 0-10.13000098 4.53535592-10.13000098 10.13000098 0 5.5946451 4.53535592 10.130001 10.13000098 10.130001zm0 1.869999c-6.627417 0-12-5.372583-12-12s5.372583-12 12-12 12 5.372583 12 12-5.372583 12-12 12z" fill-rule="nonzero"/><g transform="translate(4.592 8.232)"><path d="m1.83940611 7.37565904c0-3.41683157 0-5.12524735 0-5.12524735s-1.45779808 0-1.83940611 0v-1.11148062c.29354464 0 .92867144-.022747 1.46556743-.31882962.53689598-.29608261.74563311-.70268359.74563311-.82010145h1.09523808v7.37565904z"/><path d="m11.896 2.947-1.469.007v1.469h1.469v1.466h1.468v-1.466h1.466v-1.469h-1.466v-1.467h-1.468z"/></g></g><path d="m2.49 3.82704264c-.18 0-.33833333-.03891334-.475-.11674003-.13666667-.07782668-.24833333-.17933975-.335-.3045392s-.15166667-.26731774-.195-.42635488-.065-.32314993-.065-.49233838c0-.16242091.02333333-.32145805.07-.47711142s.11666667-.29438789.21-.41620357.20666667-.21994498.34-.2943879c.13333333-.07444291.28333333-.11166437.45-.11166437.18 0 .34.03722146.48.11166437.14.07444292.25833333.1742641.355.29946355s.17.26731775.22.42635488c.05.15903714.075.31976617.075.48218707 0 .17595599-.02333333.34345255-.07.50248969s-.11666667.29946355-.21.42127923-.21.21825309-.35.28931224-.30666667.10658872-.5.10658872zm-1.02 1.59375516h-1.35c.04.31130674.12333333.58877579.25.83240715s.29.45004127.49.61922971c.2.16918845.43.29607978.69.38067401.26.08459422.54.12689133.84.12689133.5 0 .92333333-.10997249 1.27-.32991747s.63-.50756534.85-.86286107c.22-.35529574.38-.75288859.48-1.19277854.1-.43988996.15-.87977992.15-1.31966988 0-.4466575-.04-.88993122-.12-1.32982118s-.22333333-.83409904-.43-1.18262724-.48166667-.62938102-.825-.84255846c-.34333333-.21317744-.78166667-.31976616-1.315-.31976616-.36666667 0-.7.06767538-1 .20302614-.3.13535075-.55833333.31976616-.775.55324621-.21666667.23348006-.38333333.50756534-.5.82225585-.11666667.31469051-.175.65475928-.175 1.02020633 0 .28423658.04333333.5650894.13.84255845.08666667.27746906.22333333.52448419.41.7410454.2.22332875.44333333.40097661.73.5329436s.58.19795048.88.19795048c.34 0 .64-.06090784.9-.18272352s.48666667-.32484181.68-.6090784l.02.02030261c-.01333333.1962586-.04166667.41958735-.085.66998624-.04333333.2503989-.115.48557084-.215.70551582s-.23333333.40605227-.4.55832187c-.16666667.15226961-.38.22840441-.64.22840441-.24666667 0-.45333333-.087978-.62-.26393398s-.27333333-.38236589-.32-.61922971z" fill-rule="nonzero" transform="translate(9.208 8.31)"/></g></svg>