<svg height="24" viewBox="0 0 83 24" width="83" xmlns="http://www.w3.org/2000/svg"><g fill="none" fill-rule="evenodd"><path d="m0 0h83v24h-83z" fill="#000" opacity="0"/><g fill-rule="nonzero" transform="translate(.165 .148)"><path d="m1.965411 12.767569 8.6486486 3.254054c.4162805.1577135.8782077.1433053 1.28385-.040045.4056422-.1833502.7216576-.5205722.8783122-.9372523l3.2432433-8.64864862c.1583159-.41624151.1441998-.87841736-.0392236-1.28422124-.1834233-.40580389-.5210248-.72176432-.9380737-.87794092l-8.64864869-3.25405406c-.41624151-.15831591-.87841736-.14419984-1.28422124.03922351-.40580389.18342336-.72176432.52102489-.87794092.93807379l-3.24324325 8.64864864c-.15831591.4162415-.14419984.8784174.03922351 1.2842213.18342336.4058038.52102489.7217643.93807379.8779409z" fill="#fcb813"/><path d="m0 10.9081095v-9.23459458c-.00056919-.44401934.17556232-.87001809.48953167-1.18398744s.7399681-.49010086 1.18398744-.48952748h9.23243239c.924256 0 1.673515.74925892 1.673515 1.67351492v9.23459458c.0005724.4444169-.1754215.8708596-.4892662 1.1855153s-.7398318.4917495-1.1842488.4923225h-9.23243239c-.44459364 0-.870915-.176908-1.18488426-.4916886-.31396927-.3147806-.48977808-.741557-.48863485-1.1861492z" fill="#8bc53f"/><path d="m.9881137 10.6118933 3.24324325-8.64864865c.1561766-.41704891.47213703-.75465043.87794092-.93807379.40580388-.18342336.86797973-.19753943 1.28422124-.03922351l6.19243379 2.33081081v7.59135134c.000575.4455416-.1763086.8729693-.4915572 1.1878121s-.7429036.4911759-1.1884442.4900313h-9.23243239-.0627027c-.63639948-.4348404-.89350096-1.2481024-.62270271-1.9697353z" fill="#00377c"/><g fill="#fff"><circle cx="8.504" cy="8.506" r="1.589"/><path d="m61.085 10.932h-.981l-2.219-3.354v3.354h-.979v-4.893h.979l2.219 3.356v-3.356h.981z"/><path d="m65.444 6.045v.792h-1.297v4.095h-.979v-4.095h-1.298v-.792z"/><path d="m68.6032488 10.0000014h-1.9459459l-.3221622.9318919h-1.0291892l1.7578379-4.89297298h1.1394594l1.7578379 4.89297298h-1.0356757zm-.2659459-.7827027-.707027-2.04540541-.7070271 2.04540541zm5.0097297 1.7145946-1.0810811-1.90486487h-.4627027v1.90486487h-.9794594v-4.88648649h1.8335135c.3334717-.00967467.6645452.0592064.9664865.20108108.2484549.11633229.4568673.30367771.5989189.53837838.1334209.23045147.2021455.492651.1989189.75891892.0170978.67722929-.4478076 1.27172821-1.1091892 1.41837837l1.1610811 1.96972974zm-1.5394594-2.64000001h.8194594c.2159493.01788537.4300728-.05141275.5945946-.19243243.1363704-.14330269.2075593-.33652975.1967568-.53405405.0111281-.19371385-.0603707-.38306762-.1967568-.52108108-.1664391-.13701417-.3797484-.20372181-.5945946-.18594595h-.8194594z"/><path d="m76.504 6.045v4.887h-.98l.402-.404-.402.404v-4.887z"/><path d="m53.4659515 5.97619427c-1.3811184.01194026-2.4922105 1.13911238-2.4843252 2.52025944.0079697 1.38114705 1.1319278 2.49549039 2.513092 2.49156279 1.3811642-.0039485 2.4987494-1.12468313 2.4988008-2.50585294-.002861-.6674873-.2707664-1.30649883-.7447786-1.77645618-.4740122-.46995736-1.1153017-.73236313-1.782789-.72951311zm0 4.09515993c-.8774025-.0011952-1.5878219-.71322716-1.587027-1.59063012.0007962-.87740295.7125057-1.58814544 1.5899089-1.58774824.8774033.00039754 1.5884695.71178441 1.5884695 1.58918772 0 .42185407-.1677283.82639857-.4662269 1.12449159-.2984986.29809301-.7032708.46527155-1.1251245.46469905zm26.5037838-4.09515993c-1.3811184.01194026-2.4922105 1.13911238-2.4843252 2.52025944.0079697 1.38114705 1.1319278 2.49549039 2.5130919 2.49156279 1.3811642-.0039485 2.4987495-1.12468313 2.4988009-2.50585294-.0028611-.6674873-.2707664-1.30649883-.7447786-1.77645618-.4740122-.46995736-1.1153017-.73236313-1.782789-.72951311zm0 4.09515853c-.8776849 0-1.5891892-.71150428-1.5891892-1.58918924 0-.87768495.7115043-1.58918918 1.5891892-1.58918918.877685 0 1.5891892.71150423 1.5891892 1.58918918 0 .42147918-.1674319.82569567-.4654627 1.12372646-.2980308.29803078-.7022473.46546278-1.1237265.46546278z"/><circle cx="4.08" cy="4.08" r="1.589"/><path d="m18.9643299 13.0313528c.0058199-.1820065-.0629041-.3585023-.1902703-.4886487-.1206341-.1227565-.2862887-.1907374-.4583783-.1881816h-1.4291892v7.6887221l.8064865-.8064864-.8064865.8064864h2.0756757v-7.0097297zm35.4335135 0c.0068474-.182181-.0620292-.3590685-.1902702-.4886487-.1206342-.1227565-.2862888-.1907374-.4583784-.1881816h-1.2043243v7.6887221l.8086486-.8064864-.8086486.8064864h1.8529729v-7.0097297zm-35.2281081-2.8951352c.0011268.1656855-.0343097.3295796-.1037838.48-.1373745.293404-.3795584.5247899-.6789189.6486487-.1563725.0670967-.324982.1009658-.4951351.0994594-.1666204.0010808-.3316145-.032802-.4843243-.0994594-.2946447-.1247502-.531062-.3565318-.6616217-.6486487-.0677425-.1509137-.1023928-.314581-.1016342-.48-.0007484-.17029963.0338557-.33890254.1016342-.49513512.0620948-.14919825.1523939-.28501396.265946-.4.1141486-.1131038.2483171-.20401579.3956757-.2681081.1527098-.06665746.3177039-.10054019.4843243-.09945946.1701531-.00150642.3387626.03236274.4951351.09945946.1504348.06314979.2876076.15410933.4043243.2681081.1162366.11457354.209448.25035392.2745946.4.0695139.15575359.1049005.3245769.1037838.49513512zm7.1264865 5.9481081c-.001688.1143023.044578.224086.1275676.3027027.0915137.0843928.2129329.1287575.3372973.1232433h1.1416216v1.6410811c-.258508.1186391-.5278654.2120453-.8043243.2789189-.3460829.0785388-.7002919.1155565-1.0551352.1102702-.4299204.004372-.8565852-.0749391-1.2562162-.2335135-.3731897-.1516198-.7094316-.38168-.9859459-.6745946-.2881713-.3119858-.5089771-.6799955-.6486487-1.081081-.1612728-.4760789-.2395288-.9763325-.2313513-1.478919-.0068337-.4737138.0662632-.9451887.2162162-1.3945946.1331945-.3920743.3442681-.7531793.6205405-1.0616216.2688226-.2944885.5996625-.5256334.9686487-.6767567.4060108-.1630568.84035-.2438983 1.2778378-.2378379.2600278-.0030487.5198056.0172125.7762162.0605406.2046848.0348114.4063681.085413.6032433.1513513.1683359.0572915.3311584.129657.4864865.2162162.1513513.0843244.2983783.1708108.4324324.2551352.111854.0759156.2432313.1179564.3783784.121081.209388.0023843.4020537-.1140527.4972973-.3005405l.5686486-.8864865-.054054-.0497297c-.4422673-.4045985-.9553502-.7241759-1.5135135-.9427027-.6731206-.2541586-1.3887732-.37673702-2.1081082-.36108109-.7325134-.00984891-1.4605003.11624749-2.147027.37189189-1.234224.4587466-2.2085233 1.4306792-2.6702703 2.6637838-.2486426.657461-.3725606 1.3555078-.3654054 2.0583784-.0067547.699405.120207 1.3936579.3740541 2.0454054.4724636 1.214898 1.4252805 2.1810137 2.6335135 2.6702702.6367858.2564969 1.3178536.3850696 2.0043243.3783784.3793462.0015135.7584307-.0201485 1.1351352-.0648648.3352598-.0396487.6670246-.1047006.9924324-.1945946.3012456-.0855442.5942907-.1976973.8756757-.3351352.2760343-.1367994.5400337-.2966457.7891892-.4778378l.0345946-.025946v-4.0864864h-3.4313514zm30.3416216 3.9589189v-7.6886486h1.132973c.2177766-.0155129.4157616.1261644.4713514.3372973l.1275675.6054054c.1521219-.1566751.3162223-.301257.4908108-.4324324.1715448-.1290697.3546683-.2419838.5470271-.3372973.1967838-.096432.4043799-.169018.6183783-.2162162.2364582-.0518036.4779385-.0771844.72-.0756757.3829003-.0065137.7629295.0671353 1.1156757.2162162.3137021.1340114.5920014.3390351.812973.5989189.2257037.2711499.3941363.5852142.4951351.9232433.1160419.3818802.1729173.7792793.1686487 1.1783783v4.8951352h-1.8508108v-4.8994595c.0230628-.387704-.0926781-.7709522-.3264865-1.0810811-.2497139-.2710715-.6098029-.4128765-.9772973-.3848648-.3129408-.0021386-.6216814.0720779-.8994595.2162162-.2937374.1549569-.5614687.3548435-.7935135.5924324v5.5610811zm15.2151352-2.5102702v-5.1891892h-1.1308108c-.1089183-.0037727-.2165116.0248185-.3091892.0821621-.0874079.0589483-.1468068.1511728-.1643244.2551352l-.0972973.4324324c-.1245135-.1353378-.2597255-.2604269-.4043243-.374054-.1435635-.1102269-.298714-.2044772-.4627027-.2810811-.1747773-.0818214-.3583012-.1434797-.547027-.1837838-.2135279-.0428603-.4308648-.0638695-.6486487-.0627027-.47216-.0068963-.9393853.096767-1.3643243.3027027-.4040479.2027686-.7595388.4904064-1.0421621.8432432-.3001911.378785-.5261336.8108634-.665946 1.2735136-.1592006.5145462-.2379671 1.0505958-.2335135 1.5891891-.0075773.5659869.0615189 1.1303936.2054054 1.6778379.1160355.4446823.3148184.8635199.5859459 1.2345946.4801492.6528155 1.2459134 1.0336846 2.0562163 1.0227027.2394792.0021876.47834-.0246752.7113513-.08.2147253-.0495168.4234958-.1220066.6227027-.2162162.1948988-.0931642.3796615-.2061955.5513514-.3372973.1753327-.1350071.3394704-.2839602.4908108-.4454054-.0027874.3716069-.0625824.7405856-.1772973 1.094054-.0972409.3769324-.2741932.7286252-.5189189 1.0313514-.2234331.2655941-.510586.470172-.8345946.5945946-.3600358.1344775-.7422259.1997652-1.1264865.1924324-.2586637.0077434-.5171126-.0213776-.7675676-.0864865-.1487122-.0502293-.3037372-.0793419-.4605405-.0864865-.1104449-.0080816-.2195081.0285325-.3027027.1016216-.0687537.071664-.1107454.1648092-.1189189.2637838l-.0583784.5405406c-.0194595.1837837-.0345946.3675675-.0475676.5535135.6342704.1734123 1.2884128.2635386 1.945946.2681081.6330198.0116682 1.2620755-.1022379 1.8508108-.3351351.5206568-.2129105.9852791-.5428811 1.3578378-.9643244.3839481-.4483493.6684087-.9730537.8345946-1.5394594.1972074-.6694973.2926879-1.3648287.2832432-2.0627027v-1.1091892zm-2.6162162.9124324c-.2993134.1677284-.6386832.2507021-.9816217.24-.2229403.0029279-.4439837-.0412808-.6486486-.1297297-.2021433-.095148-.3736477-.2449335-.4951352-.4324325-.1491865-.2334403-.254686-.4920605-.3113513-.7632432-.0779625-.3761294-.1142175-.759708-.1081081-1.1437838-.0060095-.3894026.0368476-.7780215.1275676-1.1567567.067299-.2912878.1906762-.5666832.3632432-.8108108.149602-.2043631.3480965-.3679166.5772973-.4756757.2392461-.1071812.4989432-.1610388.7610811-.1578379.2738134-.0011483.5450872.0525183.7978378.1578379.2686081.1224479.5037235.3078702.6854054.5405405v3.4464865c-.2127366.2725994-.4727232.5047564-.7675675.6854054zm-29.5740541 1.5978378v-7.6886486h1.1308108c.2180264-.0164016.4165222.1256412.4713514.3372973l.121081.5686486c.1342341-.1470044.278742-.2842869.4324325-.4108108.1454903-.1241021.3034513-.2327909.4713513-.3243243.1714435-.0922395.3527784-.1647734.5405406-.2162162.2057924-.0554605.4182299-.082379.6313513-.08.427539-.0080103.8438875.1369066 1.1740541.4086486.3240314.2789007.5661741.6406201.7005405 1.0464865.1124516-.2399193.2644855-.4591989.4497297-.6486486.1733873-.1786531.3731962-.3296036.5924325-.4475676.2162179-.1148978.4466856-.2006871.6854054-.2551351.239852-.0541134.4849308-.0816666.7308108-.0821622.3858202-.0068242.769465.059195 1.1308108.1945946.3183203.1225118.6034432.3180246.8324324.5708108.2339457.2652808.4092952.5769314.5145946.9145946.1226289.3998302.1817268.8164336.1751352 1.2345946v4.8951351h-1.8508108v-4.9124324c.0285257-.3949993-.0858054-.7871014-.3221622-1.1048649-.2435858-.2586821-.5904045-.3943938-.9448649-.3697297-.1804719-.0017432-.3595904.031291-.5275675.0972973-.3354328.1308038-.5968952.4017452-.7156757.7416216-.0741865.2035526-.1101053.4190655-.105946.6356757v4.8951351h-1.8572973v-4.8951351c0-.5124324-.1037837-.8886486-.3113513-1.1221622-.235572-.2448196-.566861-.3736982-.905946-.3524324-.2612635-.0014638-.51813.067233-.7437837.1989189-.2457193.142392-.4651309.3259664-.6486487.5427027v5.6216217zm-1.9783784 0h-.8324324c-.142113.0072841-.2838602-.0201748-.412973-.08-.1112486-.0732036-.1889865-.1874783-.2162162-.3178378l-.1643243-.547027c-.1815204.1649377-.3728615.3187326-.572973.4605405-.1824768.1298093-.3772903.2413382-.5816216.332973-.2034042.0918814-.416696.1600767-.6356757.2032432-.2472638.047058-.4985806.06951-.7502703.0670271-.3048704.0033164-.6083757-.0411879-.8994594-.1318919-.2610322-.0792722-.5020969-.2134427-.7070271-.3935135-.2013532-.1779227-.3589521-.399893-.4605405-.6486487-.1161162-.2891484-.17274-.5987407-.1664865-.9102703.0029892-.302902.081782-.6002336.2291892-.8648648.1849057-.315375.4467588-.5787159.7610811-.7654054.4390217-.2632669.9170373-.4552029 1.4162162-.5686487.7200558-.1608071 1.4570015-.2334125 2.1945946-.2162162v-.454054c0-.518919-.1081081-.9023424-.3243243-1.1502703-.2441237-.2609673-.5926622-.3983185-.9491892-.3740541-.253373-.0066578-.5061159.0284048-.7481081.1037838-.1807422.0619377-.3552143.1408483-.5210811.2356757-.147027.0886486-.2832432.1664865-.4086487.2378378-.1264048.0696279-.2686688.1053801-.4129729.1037838-.1150461.0029797-.2279984-.0311334-.3221622-.0972973-.0883252-.0637072-.1620387-.1455291-.2162162-.24l-.3372973-.5924324c.864605-.8074475 2.0084802-1.2484129 3.1913514-1.2302703.4111024-.0084689.819774.0650332 1.2021621.2162162.3389711.1381055.6442583.3475295.8951351.6140541.2489887.2715623.4389365.591823.5578379.9405405.1313211.3862949.1963822.7920131.1924324 1.2zm-3.5978378-1.1545945c.1764797.0013814.3526057-.0160137.5254054-.0518919.1563287-.0335816.3080495-.085849.4518919-.1556757.1459941-.0698923.2843849-.1546657.412973-.252973.1418244-.1098248.2755075-.2297783.4-.3589189v-1.2972973c-.4525803-.006515-.9048354.0274946-1.3513514.1016216-.298095.0506948-.5886522.1385884-.8648649.2616216-.187152.0782095-.3493866.2060533-.4691892.3697298-.090311.1366123-.1384351.2967754-.1383783.4605405-.0252563.267064.0832131.5293332.2897297.7005405.2178633.1515936.4784592.2296208.7437838.2227028zm40.4432432-.0670271v.6486487h-.4021621v-1.7297298h.5621621c.1079604-.002026.2156726.0110741.32.038919.0785234.0213534.1520194.0581014.2162162.1081081.0542611.043027.096059.0997528.1210811.1643243.0265439.0644307.0397823.1335644.0389189.2032432-.0000186.0542126-.0080328.108126-.0237837.16-.0147966.0494145-.0374266.0961346-.0670271.1383784-.0291068.0435732-.0657094.0816399-.1081081.1124324-.0451739.0349495-.095504.0626675-.1491892.0821622.0265024.0145464.0518072.0311753.0756757.0497297.0229909.0220478.0433105.0467216.0605405.0735136l.3675676.6032432h-.3632432c-.0586058.0036863-.1144133-.0254668-.1448649-.0756757l-.2875676-.5037838c-.0104572-.0197409-.0261719-.036204-.0454054-.0475675-.0223013-.0104712-.0467195-.0156508-.0713513-.0151352zm0-.2767567h.16c.0468761.0010585.0936123-.0055138.1383784-.0194595.035374-.0127411.0677546-.032611.0951351-.0583784.0246568-.024106.0431904-.0537597.0540541-.0864865.0106153-.0342928.0157238-.0700525.0151351-.1059459.0052015-.068071-.0220513-.1346001-.0735135-.1794595-.0682777-.0428443-.1491153-.0611471-.2291892-.0518919h-.1621621z"/><path d="m74.7308164 20.0973003c-.5948648.0008732-1.1316419-.3567915-1.3598932-.906124s-.1029955-1.1820763.3173282-1.6030191c.4203238-.4209428 1.0528825-.5471296 1.6025504-.319687.5496678.2274426.9081227.7636928.9081227 1.3585582-.0011869.8106723-.6574385 1.4678903-1.4681081 1.4702719zm0-2.7221656c-.6925934.001197-1.2530826.5636234-1.2518901 1.2562168.0011964.6925934.5636223 1.2530832 1.2562157 1.2518913.6925934-.0011957 1.2530837-.563621 1.2518925-1.2562144-.0005748-.3325959-.1332478-.651342-.3688341-.8861174-.2355864-.2347753-.554788-.3663484-.887384-.3657763z"/></g></g></g></svg>